<svg width="15" height="12" viewBox="0 0 15 12" fill="none" xmlns="http://www.w3.org/2000/svg">
<g id="Icon">
<path fill-rule="evenodd" clip-rule="evenodd" d="M2.55373 0.21967C2.24679 -0.0732233 1.74913 -0.0732233 1.44219 0.21967C1.13524 0.512563 1.13524 0.987437 1.44219 1.28033L12.4459 11.7803C12.7529 12.0732 13.2505 12.0732 13.5575 11.7803C13.8644 11.4874 13.8644 11.0126 13.5575 10.7197L12.3996 9.61479C13.6081 8.69431 14.5257 7.44083 15 5.99997C13.9984 2.95716 11.0193 0.75 7.50001 0.75C6.22391 0.75 5.01884 1.04019 3.95332 1.55518L2.55373 0.21967ZM5.90282 3.41543L7.09271 4.55085C7.22262 4.51768 7.35917 4.5 7.50004 4.5C8.36821 4.5 9.072 5.17157 9.072 6C9.072 6.13442 9.05347 6.26472 9.01872 6.38868L10.2086 7.52409C10.4852 7.07743 10.644 6.55641 10.644 6C10.644 4.34315 9.23638 3 7.50004 3C6.91694 3 6.37091 3.15147 5.90282 3.41543Z" fill="#0F172A"/>
<path d="M9.42871 11.0225L7.30307 8.99421C5.72362 8.90104 4.45981 7.69509 4.36218 6.18795L1.47522 3.43316C0.819483 4.17917 0.313104 5.04877 0 6.00003C1.00156 9.04284 3.98065 11.25 7.49999 11.25C8.16545 11.25 8.81159 11.1711 9.42871 11.0225Z" fill="#0F172A"/>
</g>
</svg>
